<svg width="200" height="154" viewBox="0 0 200 154" fill="none" xmlns="http://www.w3.org/2000/svg">
<path fill-rule="evenodd" clip-rule="evenodd" d="M79.6769 41.2924L47.9128 73.0565C45.7007 75.2687 45.7007 78.8552 47.9128 81.0673L79.6769 112.831L60.5555 131.953C58.3434 134.165 54.7568 134.165 52.5447 131.953L1.65908 81.0673C-0.553023 78.8552 -0.55303 75.2687 1.65908 73.0565L52.5447 22.1709C54.7568 19.9588 58.3434 19.9588 60.5555 22.1709L79.6769 41.2924ZM79.6769 41.2924L119.31 1.65908C121.522 -0.553025 125.109 -0.553028 127.321 1.65908L198.003 72.3412C200.215 74.5533 200.215 78.1398 198.003 80.3519L126.606 151.749C124.393 153.961 120.807 153.961 118.595 151.749L79.6769 112.831L111.441 81.0673C113.653 78.8552 113.653 75.2687 111.441 73.0566L79.6769 41.2924Z" fill="url(#paint0_linear_92_6)"/>
<defs>
<linearGradient id="paint0_linear_92_6" x1="58.7783" y1="0" x2="281.224" y2="0" gradientUnits="userSpaceOnUse">
<stop stop-color="#2F54D1"/>
<stop offset="0.363723" stop-color="#6835D6"/>
</linearGradient>
</defs>
</svg>
