<svg width="681" height="172" viewBox="0 0 681 172" fill="none" xmlns="http://www.w3.org/2000/svg">
<path fill-rule="evenodd" clip-rule="evenodd" d="M79.6769 59.2924L47.9128 91.0566C45.7007 93.2687 45.7007 96.8552 47.9128 99.0673L79.6769 130.831L60.5555 149.953C58.3434 152.165 54.7568 152.165 52.5447 149.953L1.65908 99.0673C-0.553023 96.8552 -0.55303 93.2687 1.65907 91.0566L52.5447 40.1709C54.7568 37.9588 58.3434 37.9588 60.5555 40.1709L79.6769 59.2924ZM79.6769 59.2924L119.31 19.6591C121.522 17.447 125.109 17.447 127.321 19.6591L198.003 90.3412C200.215 92.5533 200.215 96.1398 198.003 98.3519L126.606 169.749C124.393 171.961 120.807 171.961 118.595 169.749L79.6769 130.831L111.441 99.0673C113.653 96.8552 113.653 93.2687 111.441 91.0566L79.6769 59.2924Z" fill="url(#paint0_linear_154_147)"/>
<path d="M247.08 132V93.852C247.08 85.668 252.228 79.596 260.412 79.596C269.124 79.596 272.82 85.404 272.82 92.796V132H287.868V93.852C287.868 85.932 293.148 79.596 301.2 79.596C309.78 79.596 313.608 85.272 313.608 92.796V132H328.392V90.288C328.392 73.26 317.304 65.868 305.688 65.868C297.372 65.868 289.848 68.772 284.832 77.22C281.4 69.696 274.008 65.868 265.56 65.868C258.3 65.868 250.248 69.3 246.552 75.9V67.716H231.9V132H247.08ZM371.43 120.252C362.058 120.252 353.478 113.124 353.478 99.792C353.478 86.46 362.058 79.596 371.43 79.596C380.934 79.596 389.382 86.46 389.382 99.792C389.382 113.256 380.934 120.252 371.43 120.252ZM371.43 65.736C352.29 65.736 338.166 80.124 338.166 99.792C338.166 119.592 352.29 133.98 371.43 133.98C390.702 133.98 404.826 119.592 404.826 99.792C404.826 80.124 390.702 65.736 371.43 65.736ZM425.96 99.66C425.96 87.384 433.352 79.596 443.384 79.596C453.416 79.596 460.28 87.252 460.28 99.528C460.28 111.804 453.284 120.12 443.252 120.12C432.824 120.12 425.96 111.936 425.96 99.66ZM475.064 36.432H460.148V75.24C458.168 71.148 452.492 66 441.272 66C423.188 66 410.648 81.18 410.648 99.66C410.648 119.064 423.056 133.584 441.536 133.584C450.644 133.584 457.376 129.096 460.412 123.684C460.412 126.324 460.808 130.548 461.072 132H475.724C475.592 130.944 475.064 126.06 475.064 120.252V36.432ZM486.892 114.576C486.892 124.74 495.208 133.98 508.672 133.98C519.1 133.98 525.436 128.7 528.472 123.816C528.472 128.964 529 131.604 529.132 132H543.388C543.256 131.34 542.596 127.512 542.596 121.704V89.76C542.596 76.956 535.072 65.736 515.272 65.736C499.432 65.736 489.4 75.636 488.212 86.724L502.204 89.892C502.864 83.424 507.352 78.276 515.404 78.276C523.852 78.276 527.548 82.632 527.548 88.044C527.548 90.288 526.492 92.136 522.796 92.664L506.296 95.172C495.34 96.756 486.892 103.092 486.892 114.576ZM511.576 121.968C505.504 121.968 502.204 118.008 502.204 113.652C502.204 108.372 506.032 105.732 510.784 104.94L527.548 102.432V105.336C527.548 117.876 520.156 121.968 511.576 121.968ZM572.458 132V36.432H557.146V132H572.458ZM603.428 132V67.716H588.248V132H603.428ZM585.872 45.144C585.872 50.688 590.36 55.044 595.772 55.044C601.316 55.044 605.804 50.688 605.804 45.144C605.804 39.6 601.316 35.112 595.772 35.112C590.36 35.112 585.872 39.6 585.872 45.144ZM647.206 79.86C656.974 79.86 661.33 86.196 662.782 91.872L676.51 86.856C673.87 76.56 664.366 65.736 647.074 65.736C628.594 65.736 614.206 79.992 614.206 99.792C614.206 119.328 628.594 133.98 647.47 133.98C664.366 133.98 674.002 123.024 677.038 112.992L663.574 108.108C662.122 112.992 657.502 119.988 647.47 119.988C637.834 119.988 629.518 112.728 629.518 99.792C629.518 86.856 637.834 79.86 647.206 79.86Z" fill="black"/>
<defs>
<linearGradient id="paint0_linear_154_147" x1="58.7783" y1="18" x2="281.224" y2="18" gradientUnits="userSpaceOnUse">
<stop stop-color="#2F54D1"/>
<stop offset="0.363723" stop-color="#6835D6"/>
</linearGradient>
</defs>
</svg>
